<?xml version="1.0" encoding="UTF-8" standalone="no"?>
<svg xmlns:xlink="http://www.w3.org/1999/xlink" xmlns="http://www.w3.org/2000/svg" version="1.1" width="100" height="100" viewBox="0 0 458.88 457.60001">
  <title>Group</title>
  <defs
     id="defs66" />
  <g
     id="g70">
    <path
       style="fill:#ffffff;stroke-width:0.64"
       d="m 255.08046,452.50615 c -0.34527,-0.44 -1.70628,-10.448 -3.02448,-22.24 -1.3182,-11.792 -2.59793,-21.65657 -2.84386,-21.92126 -0.24593,-0.26469 -4.69978,-0.19465 -9.89743,0.15565 -8.95353,0.60344 -25.38581,0.0935 -32.22419,-1 -3.17165,-0.50717 -2.39846,-3.48034 -6.23568,23.97834 -1.85037,13.24109 -3.09693,20.29166 -3.65559,20.6761 -2.47965,1.70637 -15.24773,-1.31597 -15.24773,-3.6093 0,-2.18932 22.47603,-104.31999 23.13171,-105.11003 0.95834,-1.15474 4.42553,-1.0722 6.16588,0.14679 0.8883,0.62218 1.42241,1.66259 1.42241,2.77073 0,0.97594 -1.44,11.80878 -3.2,24.07298 -1.76,12.2642 -3.2,22.64932 -3.2,23.07804 0,1.0692 2.84956,1.51604 13.77919,2.16073 8.37172,0.49381 26.88318,-0.0878 27.66458,-0.86921 0.16158,-0.16157 -0.89352,-10.60683 -2.34467,-23.21167 -1.45114,-12.60484 -2.63408,-23.86102 -2.62877,-25.01373 0.008,-1.65635 0.35392,-2.22673 1.65133,-2.72 2.36793,-0.90028 5.12275,-0.76738 5.99984,0.28945 0.80871,0.97444 20.68021,104.31125 20.3747,105.9536 -0.44005,2.36562 -14.07822,4.46325 -15.68724,2.41279 z m 45.92193,-14.07066 c -2.87085,-1.04234 -5.20696,-5.10739 -5.34882,-9.30743 l -0.10207,-3.02191 7.78835,0.2161 c 4.40106,0.12211 9.4113,-0.11291 11.52,-0.54037 8.87734,-1.79958 16.71388,-7.68331 18.52327,-13.9074 1.12164,-3.8583 0.82223,-6.07649 -1.42114,-10.52864 -3.31816,-6.58514 -8.68046,-8.58021 -25.451,-9.4692 -16.12526,-0.85477 -22.38128,-2.75861 -28.20647,-8.5838 -5.94081,-5.9408 -9.39766,-15.5541 -9.45966,-26.30669 -0.0955,-16.56054 6.99941,-26.61393 20.1219,-28.51254 5.14172,-0.74392 9.62286,-0.1638 12.21925,1.58191 2.6,1.74814 7.14071,8.2782 6.64839,9.56116 -0.3107,0.80967 -1.48919,0.90529 -7.3476,0.59624 -5.74047,-0.30284 -7.64618,-0.15779 -10.74881,0.8181 -4.57846,1.44011 -8.56555,5.12773 -9.71938,8.98938 -2.09949,7.02656 0.0347,16.17734 4.93088,21.14138 4.34365,4.40393 9.4258,5.65892 25.45954,6.28696 11.21068,0.43913 16.8029,1.56867 22.79225,4.60371 4.78782,2.42617 10.10383,8.16915 13.01587,14.06126 2.27048,4.59401 2.45384,5.3761 2.44736,10.43925 -0.006,4.82013 -0.25166,5.99152 -2.05763,9.81725 -3.37844,7.15687 -12.0654,15.13905 -20.33537,18.68556 -7.95811,3.41277 -20.54237,5.09591 -25.26911,3.37972 z M 123.7115,427.43263 c -15.64266,-3.47678 -31.445734,-14.93581 -38.279274,-27.75686 -2.71467,-5.09322 -3.96221,-10.2764 -3.95314,-16.42409 0.0131,-8.87808 2.77869,-16.19595 9.46655,-25.04894 12.126254,-16.05203 34.590194,-31.73449 51.740204,-36.12072 18.49243,-4.72957 33.21157,4.16785 37.09658,22.42413 3.49921,16.44331 -4.36252,49.06587 -15.81778,65.63649 -9.73251,14.07858 -25.0671,20.66527 -40.25314,17.28999 z m 12.16,-13.94944 c 11.23869,-3.37055 20.15901,-14.0465 27.23953,-32.60063 4.29755,-11.2615 5.64536,-17.38243 5.68467,-25.81641 0.0312,-6.70503 -0.15102,-8.08624 -1.43578,-10.88 -2.89603,-6.29749 -9.24972,-10.97886 -15.82138,-11.65712 -9.03218,-0.9322 -21.28104,5.27902 -33.8286,17.154 -18.79763,17.79004 -24.794784,32.80194 -18.42628,46.12414 1.5122,3.16336 3.24734,5.38909 6.73556,8.64 9.25312,8.62361 20.1895,11.93396 29.85228,9.03602 z M 44.604446,357.38606 c -4.0554,-2.50634 -17.60143,-26.54019 -20.37581,-36.15151 -2.73822,-9.48609 -2.04798,-19.03867 1.85717,-25.70231 5.14227,-8.77462 16.77223,-14.39893 29.72806,-14.37663 15.70015,0.027 26.00309,6.62806 34.8378,22.32042 l 4.38017,7.78014 2.01983,-1.22508 c 20.936604,-12.69861 31.683984,-19.11235 32.640184,-19.47877 0.85321,-0.32695 1.7049,0.10921 3.07288,1.57363 3.90926,4.18487 5.48605,2.76637 -35.613234,32.03809 -48.71848,34.69824 -47.19394,33.63804 -48.99598,34.07276 -0.98538,0.23771 -2.29917,-0.077 -3.55107,-0.85074 z m 21.50705,-28.53171 c 9.68,-5.87796 17.80379,-10.88312 18.05286,-11.12256 0.70949,-0.68208 -7.18467,-14.19745 -9.84843,-16.86121 -6.09269,-6.09269 -15.70966,-7.47762 -25.80443,-3.71607 -5.12482,1.90963 -10.57496,7.31334 -11.80415,11.70358 -1.75532,6.26939 0.10566,13.62121 6.17601,24.39834 3.49293,6.20124 4.02514,6.90894 4.93067,6.55654 0.38361,-0.14929 8.61747,-5.08067 18.29747,-10.95862 z m 265.425724,24.65389 c -1.17636,-1.03285 -2.68124,-2.88511 -3.34418,-4.11613 l -1.20537,-2.23823 10.16499,-10.44387 c 5.59075,-5.74413 10.6831,-10.53556 11.31633,-10.64765 1.49552,-0.26469 6.56044,3.38006 7.46942,5.37507 0.63728,1.39867 0.34439,1.96502 -3.03488,5.8684 -4.72804,5.46132 -17.68514,18.08032 -18.56475,18.08032 -0.36451,0 -1.62521,-0.84506 -2.80156,-1.87791 z m 41.45428,-32.61745 c -34.28978,-21.67815 -45.49052,-29.06082 -45.64586,-30.08627 -0.28862,-1.90528 2.26743,-5.81837 3.80061,-5.81837 0.68769,0 9.8082,4.57012 20.2678,10.15584 10.45959,5.58571 20.23524,10.77239 21.72365,11.52596 l 2.70619,1.37013 1.70613,-3.36597 c 2.48157,-4.89581 5.83687,-12.81359 8.07109,-19.04596 2.27315,-6.341 5.06133,-16.12239 4.69898,-16.48475 -0.13769,-0.13769 -10.80161,-2.79619 -23.69759,-5.90777 -12.89599,-3.11159 -23.89646,-6.03025 -24.4455,-6.48591 -0.71249,-0.59132 -0.90411,-1.53025 -0.6694,-3.28012 0.39758,-2.96417 1.42108,-4.32502 3.24226,-4.31088 3.63173,0.0282 104.8177,17.10953 105.52101,17.81314 1.6589,1.65962 -0.16263,12.95995 -2.38656,14.80566 -0.78264,0.64953 -4.96436,-0.16311 -22.62258,-4.39628 -11.91435,-2.8562 -21.85321,-5.19309 -22.08635,-5.19309 -0.23313,0 -0.42388,0.41527 -0.42388,0.92282 0,3.63419 -8.13862,26.14292 -12.93842,35.7834 -1.37636,2.76443 -2.32593,5.20276 -2.11018,5.41851 0.21576,0.21576 9.08996,5.03722 19.72044,10.71436 12.12036,6.47281 19.40678,10.72472 19.539,11.40178 0.48814,2.49985 -5.99507,13.2098 -7.98761,13.19513 -0.29878,-0.002 -20.99123,-12.93131 -45.98323,-28.73136 z m -224.64,-32.59436 c -7.02308,-3.3713 -10.75831,-12.45979 -11.61864,-28.27028 -0.84219,-15.47704 3.55227,-41.11501 10.14714,-59.20001 8.25668,-22.64214 20.4058,-40.66043 32.10353,-47.61253 7.67354,-4.56048 7.53397,-4.54836 52.23412,-4.53987 43.29178,0.008 42.81244,-0.0259 50.25385,3.56918 4.80455,2.32111 14.81956,12.0729 19.08414,18.58255 15.24805,23.27532 25.80438,61.11293 24.52902,87.92068 -1.15288,24.23342 -9.2588,33.82126 -24.14955,28.56453 -5.75263,-2.03079 -11.24853,-5.73424 -23.30361,-15.70327 -22.85985,-18.90411 -33.18031,-23.65234 -49.84491,-22.93259 -15.94827,0.68882 -24.75935,5.37339 -42.31509,22.4976 -14.19014,13.84135 -20.15994,17.42671 -30.07855,18.06465 -3.53134,0.22713 -5.0242,0.0277 -7.04145,-0.94064 z m 123.55791,-64.40958 c 4.44767,-2.21637 6.68209,-5.78335 6.68209,-10.66715 0,-4.37875 -0.76872,-6.6471 -3.08072,-9.09069 -2.46557,-2.60591 -4.75355,-3.62287 -8.15077,-3.62287 -5.9263,0 -10.00006,3.50048 -11.26967,9.68374 -1.27599,6.21434 1.93714,12.38174 7.46116,14.32126 3.58979,1.26038 4.74973,1.17374 8.35791,-0.62429 z m -68.00324,-6.97964 c 13.6173,-6.69627 18.64902,-22.51627 11.6596,-36.6584 -3.95289,-7.99812 -11.26031,-12.95579 -19.93168,-13.52253 -10.10725,-0.66059 -19.09858,5.03339 -23.80495,15.07504 -1.5515,3.31033 -1.71764,4.37675 -1.71764,11.02482 0,6.6509 0.16575,7.71366 1.72033,11.0307 3.35103,7.15013 8.3333,11.77058 15.1144,14.01679 5.11001,1.69267 12.39689,1.27744 16.95994,-0.96642 z m -12.90261,-10.81413 c -3.76039,-0.76765 -7.8586,-4.84431 -9.01229,-8.96489 -2.15763,-7.7063 2.74317,-16.13945 9.84433,-16.93985 4.33584,-0.48871 7.21775,0.32019 9.95669,2.79466 3.26996,2.95421 4.71656,6.79494 4.36197,11.58107 -0.59538,8.03637 -7.29314,13.13306 -15.1507,11.52901 z m 100.88919,3.01422 c 1.96624,-1.37722 3.33875,-4.25527 3.33875,-7.00116 0,-5.03534 -3.70742,-8.44384 -8.48707,-7.80275 -6.73018,0.9027 -8.94388,9.66933 -3.5811,14.18181 2.26486,1.90576 6.46899,2.20536 8.72942,0.6221 z M 262.6668,194.82144 c 2.09129,-2.09129 2.4847,-2.907 2.4847,-5.15178 0,-5.06122 -2.98944,-8.36352 -7.57117,-8.36352 -4.08402,0 -7.78883,3.89733 -7.78883,8.19358 0,2.25747 2.34324,5.89673 4.49921,6.98767 3.06576,1.55129 5.67851,1.03162 8.37609,-1.66595 z m 20.69839,-8.65184 c 5.63351,-4.29688 6.2327,-12.37439 1.28498,-17.32213 -5.41823,-5.41822 -13.82583,-3.8715 -17.00502,3.12837 -2.0961,4.61516 -1.4173,9.2572 1.86707,12.76824 3.77858,4.03937 9.63582,4.6421 13.85297,1.42552 z M 70.118876,263.16282 c -0.98683,-0.36506 -1.51667,-1.39152 -2.01113,-3.89616 -1.11574,-5.65177 -1.97279,-13.0085 -2.41263,-20.70954 -0.41588,-7.28168 -0.41297,-7.3023 1.11971,-7.91527 1.01678,-0.40665 -8.64595,-0.62829 -28.56093,-0.65514 -33.5260986,-0.0452 -32.3350886,0.11161 -33.5546086,-4.41733 -0.76813,-2.85263 0.0865,-16.05104 1.22922,-18.98324 0.83405,-2.14016 2.9152496,-4.57932 4.7513596,-5.56857 3.12555,-1.68399 21.935799,-6.0067 35.271629,-8.10565 13.89361,-2.18673 21.07563,-2.80542 37.31183,-3.21422 l 15.551844,-0.39156 -7.871844,-5.56546 c -19.05819,-13.47431 -39.19565,-32.33845 -53.16972,-49.80771 -4.99841,-6.24861 -6.10033,-9.17254 -4.92995,-13.08154 1.03815,-3.46735 6.84058,-12.87393 9.1291,-14.79959 3.77064,-3.17278 2.42714,-3.94694 48.77908,28.10765 29.065254,20.10002 42.939864,30.05674 43.066544,30.90547 0.23021,1.54241 -2.41439,5.59962 -3.82735,5.87173 -0.56949,0.10968 -19.21034,-10.48251 -41.424104,-23.53819 -22.21376,-13.05569 -40.87293,-23.92344 -41.46482,-24.15057 -2.95501,-1.13394 13.76951,18.85613 26.36939,31.51813 12.65388,12.71628 25.321894,23.21247 40.411354,33.48318 3.21824,2.19052 5.9765,4.47644 6.12946,5.07983 0.43764,1.72641 -0.69885,5.1698 -1.91528,5.803 -0.60804,0.31651 -8.88153,0.74067 -18.38553,0.94256 -28.220624,0.59951 -52.521104,4.54232 -79.040004,12.82443 l -2.88,0.89945 2.24,0.40598 c 1.232,0.2233 22.78368,1.93383 47.89262,3.80119 36.075964,2.68299 45.773784,3.58665 46.230204,4.30784 0.78396,1.23872 0.74678,4.87725 -0.0653,6.3947 -0.63253,1.18189 -1.53618,1.23792 -19.962324,1.23792 -15.59649,0 -19.08995,0.15351 -18.20611,0.80001 0.87396,0.63926 1.21376,2.48013 1.69122,9.1621 0.54064,7.56639 1.36025,14.28423 2.31271,18.95587 0.2712,1.33023 0.006,1.94361 -1.17548,2.71768 -1.9935,1.30619 -6.92889,2.21034 -8.63012,1.58102 z M 436.12071,242.77926 c -1.18293,-0.29722 -2.60698,-0.9966 -3.16454,-1.55416 -1.15044,-1.15044 -0.81399,-2.00396 3.43152,-8.70536 9.46326,-14.93744 6.79613,-34.86985 -5.82811,-43.55555 -5.8262,-4.00854 -9.07934,-4.77917 -20.12808,-4.76813 -8.83041,0.009 -10.62296,0.20348 -16.32,1.7722 -23.90377,6.58207 -37.59637,16.8293 -38.55091,28.85063 -0.51131,6.43934 1.3944,10.9567 8.02205,19.01569 2.0024,2.43485 2.55914,3.53665 2.0457,4.04843 -0.83342,0.8307 -8.79943,0.65463 -11.17064,-0.24691 -4.37422,-1.66307 -10.42589,-10.67204 -11.88271,-17.68945 -2.85721,-13.76312 9.19524,-28.79138 32.44428,-40.45494 7.81281,-3.91952 19.40358,-8.01039 26.5221,-9.36075 21.91145,-4.15653 39.88385,3.64163 48.16383,20.8981 3.68066,7.67092 5.0498,13.72963 5.03417,22.27708 -0.0205,11.18596 -3.5831,22.51049 -8.6053,27.35359 -2.37753,2.29274 -6.14778,3.09079 -10.01336,2.11953 z M 330.45057,175.70614 c -1.79573,-3.432 -5.27147,-8.976 -7.72389,-12.32 -2.45242,-3.344 -4.92184,-6.7259 -5.48761,-7.51533 -0.62919,-0.87793 -0.8786,-2.0333 -0.64222,-2.97511 0.24643,-0.98181 14.19996,-13.91245 38.50755,-35.68466 20.96661,-18.779689 38.67724,-34.403469 39.35698,-34.719509 2.64449,-1.22956 5.20389,0.38288 10.08983,6.35666 5.75967,7.04205 14.07149,19.049269 18.81356,27.177949 5.66003,9.70226 10.20248,19.17008 9.8023,20.43095 -0.45405,1.4306 -6.05284,4.52905 -8.18381,4.52905 -2.02772,0 -1.93012,0.13581 -7.81886,-10.88 -5.18505,-9.69945 -11.06997,-19.0916 -16.24907,-25.93303 l -3.05548,-4.0362 -12.43417,9.58712 c -6.8388,5.2729 -12.91792,10.07198 -13.50916,10.66461 -1.00693,1.0093 -0.85338,1.37821 2.42578,5.82807 3.549,4.81604 10.48163,16.03256 12.99099,21.01853 1.73475,3.44686 1.1673,4.68733 -3.14349,6.87177 -4.51892,2.2899 -5.41312,2.11618 -7.41658,-1.44087 -6.84241,-12.14835 -14.51922,-23.84 -15.65349,-23.84 -0.39891,0 -28.72734,21.55534 -30.28137,23.04135 -0.30422,0.29091 1.43517,3.50562 3.86532,7.14379 5.44852,8.15698 10.16313,17.24582 9.64552,18.59467 -0.48327,1.25939 -6.89735,4.34019 -9.03606,4.34019 -1.37102,0 -2.06073,-0.88508 -4.86257,-6.24 z m -195.69584,-25.92 c -16.20329,-21.7042 -29.98553,-46.56828 -39.643794,-71.519989 -2.71649,-7.01794 -7.23944,-20.682238 -7.23944,-21.871079 0,-0.618409 0.89196,-2.140272 1.98214,-3.381917 2.70288,-3.078411 11.197664,-8.667002 13.174034,-8.667002 1.65152,0 7.66113,3.936209 17.48383,11.451663 20.297,15.529465 42.19757,37.661645 58.01476,58.628324 6.67625,8.84979 6.83204,9.76277 2.01919,11.83321 l -3.32604,1.43082 -2.59396,-2.82086 c -1.42667,-1.55147 -5.86209,-6.47988 -9.85648,-10.95201 -3.99439,-4.47213 -7.49491,-8.13115 -7.77894,-8.13115 -1.86882,0 -24.33703,16.64107 -25.91461,19.19366 -0.48099,0.77825 2.57271,6.17957 9.70068,17.15838 2.58247,3.97763 4.6954,7.77153 4.6954,8.4309 0,1.83052 -3.09311,5.13705 -4.80549,5.13705 -1.13623,0 -2.54488,-1.41072 -5.91128,-5.92 z m 7.99677,-49.135 c 2.904,-1.919219 5.28,-3.653989 5.28,-3.855049 0,-0.49 -8.62163,-8.22934 -15.36,-13.78813 -8.76669,-7.23205 -19.65059,-15.19898 -27.6297,-20.224726 l -1.71929,-1.082918 0.95808,3.2262 c 3.0714,10.342504 10.08157,28.550984 14.74515,38.299633 1.59972,3.344 3.46388,7.2994 4.14259,8.78977 l 1.23402,2.70976 6.53457,-5.29251 c 3.59402,-2.9109 8.91058,-6.86281 11.81458,-8.78203 z m 146.95083,32.06509 c -2.54207,-1.55007 -2.85167,-2.45646 -1.65665,-4.85009 0.52721,-1.056 11.13048,-19.64599 23.56282,-41.311109 12.43234,-21.665113 22.77524,-39.836687 22.98422,-40.381275 0.29214,-0.761297 -1.88301,-2.116977 -9.41063,-5.865256 -5.38482,-2.681302 -12.38259,-5.967396 -15.55059,-7.302431 -5.58499,-2.353585 -5.76552,-2.495282 -5.94147,-4.663627 -0.19931,-2.456207 2.03639,-7.489927 3.79874,-8.5529 1.29428,-0.780658 8.95437,2.247232 21.66592,8.564126 15.16782,7.537509 27.23376,15.212767 40.52782,25.780121 9.82457,7.809476 13.86899,11.850264 13.86899,13.856532 0,2.16652 -4.84353,7.07583 -6.98102,7.07583 -0.94834,0 -3.73986,-1.93638 -7.65577,-5.31053 -6.84781,-5.900406 -12.96764,-10.726804 -17.44643,-13.759105 l -2.96322,-2.006205 -27.07407,39.97792 c -21.18092,31.276019 -27.36198,39.977389 -28.39678,39.975519 -0.72749,-0.001 -2.22684,-0.5537 -3.33188,-1.22752 z M 188.73997,120.7738 c -0.70093,-1.82661 -0.39328,-15.13537 0.55359,-23.947649 1.15471,-10.7466 2.43888,-18.09954 4.77772,-27.35645 l 1.81825,-7.19644 -5.92582,-6.883554 C 182.36536,46.563313 170.2378,34.744621 160.6715,26.843531 c -8.02671,-6.629499 -8.85628,-8.014111 -5.76,-9.613826 3.26578,-1.687288 9.95375,-3.603537 12.5857,-3.606081 2.53157,-0.0024 2.93933,0.326656 12.88554,10.400001 5.64918,5.721389 12.96905,13.796256 16.26638,17.944147 3.29733,4.147891 6.19908,7.315891 6.44834,7.04 0.24927,-0.27589 1.33323,-2.805619 2.4088,-5.621619 4.8375,-12.665221 15.30405,-33.32787 18.88398,-37.2800017 1.18514,-1.308367 1.88307,-1.44 7.6349,-1.44 6.68636,0 8.80636,0.59496 8.80636,2.471428 0,0.630517 -2.74227,5.2727787 -6.09393,10.3161367 -7.08369,10.659063 -13.71115,22.519554 -18.14881,32.479036 -4.55694,10.227197 -4.57082,8.82041 0.1675,16.981176 7.72549,13.305573 16.36412,33.116842 18.99313,43.557592 1.01278,4.02207 0.25418,4.91462 -4.17706,4.91462 -4.19814,0 -4.60207,-0.44938 -7.72527,-8.59457 C 220.8009,98.847271 213.17778,83.502291 208.7549,76.411731 l -3.3524,-5.37442 -1.41974,5.37442 c -2.9126,11.02563 -5.9339,29.330279 -6.09506,36.927189 -0.0351,1.65397 -0.25938,3.72722 -0.49843,4.60722 -0.79156,2.91383 -7.74403,5.18675 -8.6493,2.82766 z M 267.7115,83.000781 c -2.992,-0.83044 -8.886,-2.09585 -13.09778,-2.81204 -4.21178,-0.71618 -7.95578,-1.60123 -8.32,-1.96678 -0.84726,-0.85035 -0.5997,-7.87884 0.3393,-9.63339 0.64196,-1.1995 1.08323,-1.291839 4.33658,-0.907436 5.31648,0.628176 18.34061,3.333836 23.22888,4.825616 5.00314,1.52683 5.49245,2.54126 3.73285,7.73899 -1.69175,4.99727 -1.91979,5.05875 -10.21983,2.75504 z"
       id="path74" />
  </g>
</svg>
